<?xml version="1.0" encoding="UTF-8" standalone="no"?>
<!-- Created with Inkscape (http://www.inkscape.org/) -->

<svg
   width="793.70081"
   height="1122.5197"
   viewBox="0 0 210 297"
   version="1.1"
   id="svg5"
   inkscape:version="1.1 (c68e22c387, 2021-05-23)"
   sodipodi:docname="logo.svg"
   inkscape:export-filename="G:\Files\Projects\mlwbd\movie-bullet-gui\logo2.png"
   inkscape:export-xdpi="67.744843"
   inkscape:export-ydpi="67.744843"
   xmlns:inkscape="http://www.inkscape.org/namespaces/inkscape"
   xmlns:sodipodi="http://sodipodi.sourceforge.net/DTD/sodipodi-0.dtd"
   xmlns="http://www.w3.org/2000/svg"
   xmlns:svg="http://www.w3.org/2000/svg">
  <sodipodi:namedview
     id="namedview7"
     pagecolor="#505050"
     bordercolor="#ffffff"
     borderopacity="1"
     inkscape:pageshadow="0"
     inkscape:pageopacity="0"
     inkscape:pagecheckerboard="1"
     inkscape:document-units="px"
     showgrid="false"
     units="px"
     inkscape:zoom="1.4142136"
     inkscape:cx="367.69553"
     inkscape:cy="414.71813"
     inkscape:window-width="1366"
     inkscape:window-height="705"
     inkscape:window-x="-8"
     inkscape:window-y="-8"
     inkscape:window-maximized="1"
     inkscape:current-layer="layer1" />
  <defs
     id="defs2" />
  <g
     inkscape:label="Layer 1"
     inkscape:groupmode="layer"
     id="layer1">
    <g
       id="g935"
       transform="matrix(1.0875112,0,0,1.143885,-10.686102,-20.676154)">
      <path
         d="m 104.75085,115.71232 c 4.92773,-1.57496 9.13534,0.30604 11.54435,-1.10722 -1.18072,-2.01697 -9.24547,0.33284 -11.7948,-1.83662 3.3034,0.98988 8.4199,-1.37269 11.06733,-1.10915 2.87601,0.28626 3.73278,1.86048 3.73278,1.86048 l -1.48775,-0.0291 0.0175,-0.0234 c 0,0 -0.0255,-0.018 -0.073,-0.0518 -0.0485,-0.0338 -0.11487,-0.0835 -0.21169,-0.14661 -0.0941,-0.0644 -0.20995,-0.13698 -0.34533,-0.2169 -0.13745,-0.0775 -0.29367,-0.16377 -0.47442,-0.24015 -0.0885,-0.0412 -0.18583,-0.0745 -0.28479,-0.11152 -0.10137,-0.0311 -0.20534,-0.0662 -0.31579,-0.0895 -0.21924,-0.0512 -0.45585,-0.0858 -0.69955,-0.0882 -0.24376,-0.004 -0.49353,0.0163 -0.7423,0.055 -0.25031,0.044 -0.48926,0.0971 -0.73383,0.14273 -0.97698,0.18569 -1.96184,0.34285 -2.70141,0.44649 -0.37012,0.0514 -0.67916,0.0882 -0.89619,0.10665 -0.10845,0.0107 -0.19405,0.0134 -0.25225,0.0151 -0.0583,-7.6e-4 -0.0895,-0.002 -0.0895,-0.002 0,0 0.0311,0.002 0.0895,0.006 0.0582,0.001 0.14433,0.003 0.25332,-0.002 0.2183,-0.007 0.52968,-0.0268 0.90254,-0.0583 0.74591,-0.0638 1.738,-0.16785 2.72881,-0.30136 0.24757,-0.0325 0.49801,-0.0738 0.73295,-0.1021 0.23781,-0.0239 0.47162,-0.0301 0.69466,-0.0142 0.22359,0.0141 0.43487,0.0572 0.62945,0.11393 0.0982,0.0259 0.19004,0.0631 0.27971,0.0956 0.0877,0.0387 0.1734,0.0728 0.25225,0.11493 0.15983,0.0778 0.29976,0.16532 0.42277,0.24383 0.12195,0.081 0.22692,0.15482 0.30951,0.21817 0.0371,0.027 0.0706,0.0528 0.1009,0.0767 -0.11834,0.38782 -0.36851,1.30446 -0.42584,2.29381 -0.0449,0.0233 -0.0953,0.0502 -0.16111,0.074 -0.0341,0.0136 -0.0702,0.0279 -0.10791,0.0431 -0.0393,0.0121 -0.0803,0.0246 -0.12329,0.0378 -0.0843,0.0298 -0.18248,0.046 -0.28412,0.0718 -0.20781,0.0385 -0.44689,0.0699 -0.71217,0.0855 -0.26548,0.0142 -0.55521,0.018 -0.86332,0.0122 -0.30797,-0.007 -0.63372,-0.0212 -0.97123,-0.0395 -0.67515,-0.0373 -1.39721,-0.0862 -2.12081,-0.11586 -0.3615,-0.0156 -0.72367,-0.0256 -1.08022,-0.0301 -0.17814,-0.001 -0.35495,-0.004 -0.52955,-0.001 -0.1748,5e-4 -0.34733,0.003 -0.51699,0.008 -0.33931,0.008 -0.66727,0.0235 -0.97758,0.044 -0.15536,0.008 -0.30597,0.0223 -0.45171,0.0344 -0.14593,0.011 -0.28646,0.0255 -0.42143,0.0404 -0.27016,0.0262 -0.51639,0.0618 -0.73476,0.0895 -0.21783,0.0339 -0.4076,0.0633 -0.56376,0.0877 -0.31118,0.0565 -0.48893,0.0889 -0.48893,0.0889 0,0 0.17855,-0.0269 0.49127,-0.0738 0.15669,-0.0194 0.34713,-0.043 0.5655,-0.0701 0.2191,-0.0209 0.4656,-0.0488 0.73576,-0.0665 0.13484,-0.0108 0.27523,-0.0208 0.42103,-0.0273 0.1458,-0.008 0.29615,-0.0168 0.45117,-0.0204 0.30971,-0.0108 0.6366,-0.0164 0.97451,-0.0137 0.16899,1.3e-4 0.34078,0.003 0.51458,0.008 0.17387,0.003 0.34981,0.011 0.52701,0.0178 0.35449,0.0153 0.71438,0.0366 1.07394,0.0631 0.71952,0.0519 1.43771,0.12295 2.11386,0.18135 0.33825,0.0288 0.6662,0.0531 0.97865,0.0701 0.31259,0.0156 0.61001,0.021 0.88618,0.0148 0.27623,-0.008 0.53142,-0.0327 0.7576,-0.0677 0.11266,-0.0243 0.21924,-0.0391 0.316,-0.0692 0.0486,-0.0134 0.0952,-0.0263 0.13985,-0.0386 0.0438,-0.016 0.0857,-0.031 0.12543,-0.0454 0.008,-0.003 0.0166,-0.006 0.0248,-0.009 -0.002,0.73309 0.12228,1.47333 0.50035,2.04077 l 0.0105,-2.6e-4 c -0.009,0.0191 -0.0204,0.041 -0.0309,0.0634 -0.0408,0.0678 -0.0948,0.15141 -0.17554,0.23901 -0.0804,0.0867 -0.17794,0.18249 -0.29869,0.27356 -0.11994,0.0909 -0.25605,0.1849 -0.41074,0.26876 -0.15409,0.0836 -0.32141,0.16658 -0.50242,0.2346 -0.18049,0.0688 -0.37106,0.13251 -0.56978,0.17948 -0.0984,0.0272 -0.2004,0.044 -0.30163,0.0661 -0.1023,0.0151 -0.2046,0.0362 -0.30831,0.046 l -0.15536,0.0177 -0.15582,0.011 c -0.10377,0.009 -0.20741,0.009 -0.31038,0.0118 -0.1031,0.002 -0.20514,-0.003 -0.30631,-0.005 -0.10076,-0.007 -0.20072,-0.0123 -0.29868,-0.0212 -0.0978,-0.0119 -0.19425,-0.0205 -0.28806,-0.0344 -0.0937,-0.0154 -0.18557,-0.0285 -0.2747,-0.045 -0.0885,-0.0182 -0.17481,-0.0362 -0.2582,-0.0534 -0.0827,-0.0208 -0.16257,-0.041 -0.23935,-0.0603 -0.0771,-0.018 -0.14887,-0.0426 -0.2183,-0.0627 -0.0688,-0.0217 -0.13538,-0.0388 -0.19578,-0.0612 -0.12108,-0.0436 -0.22853,-0.078 -0.31426,-0.11272 -0.17186,-0.069 -0.27029,-0.10852 -0.27029,-0.10852 0,0 0.0961,0.0446 0.26441,0.12275 0.0841,0.0392 0.1895,0.0794 0.30878,0.1295 0.0597,0.0256 0.12529,0.0464 0.19331,0.0718 0.0685,0.024 0.13965,0.0526 0.21636,0.0748 0.0762,0.0235 0.15569,0.0481 0.23795,0.0735 0.0833,0.0219 0.16952,0.0445 0.25813,0.0678 0.089,0.0214 0.18141,0.0396 0.2755,0.0603 0.0945,0.0191 0.19197,0.0331 0.29073,0.0503 0.0992,0.0143 0.20073,0.0251 0.30337,0.0378 0.10297,0.007 0.20721,0.0177 0.31265,0.0214 0.10571,0.003 0.21215,0.009 0.31927,0.005 l 0.16083,-0.003 0.16111,-0.01 c 0.10778,-0.005 0.21456,-0.0206 0.32167,-0.0307 0.10611,-0.0172 0.21276,-0.0292 0.3168,-0.052 0.20968,-0.0382 0.41275,-0.0941 0.60679,-0.15663 0.19458,-0.0617 0.37694,-0.14012 0.54699,-0.22124 0.17033,-0.0812 0.32401,-0.175 0.462,-0.26875 0.13845,-0.0935 0.25605,-0.19605 0.35575,-0.29348 0.0999,-0.0977 0.17594,-0.19912 0.23441,-0.28759 0.0269,-0.0483 0.0508,-0.0862 0.0701,-0.1305 0.009,-0.0228 0.0175,-0.0438 0.0253,-0.0631 0.007,-0.0188 0.0154,-0.0392 0.0172,-0.0492 l 0.002,-0.006 1.77702,-0.049 c -1.37437,0.33103 -1.93298,2.94578 -5.86743,2.30176 -2.82951,-0.4632 -3.82032,-2.2018 -6.01083,-1.49076 0.57259,-1.35953 3.41071,-0.41041 4.91357,-0.42932 1.50266,-0.0189 2.17053,-0.71552 2.17053,-0.71552 0,0 -3.08009,-1.48755 -10.32803,-0.46513 -6.678622,0.94203 -9.373755,-1.44753 -9.826998,-2.34947 0,0 3.124654,2.74117 10.065618,0.52287"
         fill="#e0552d"
         id="path16473"
         style="fill:#00b4cc;fill-opacity:1;stroke-width:0.0668203"
         inkscape:export-filename="G:\Files\Projects\mlwbd\movie-bullet-gui\favicon2.png"
         inkscape:export-xdpi="67.744843"
         inkscape:export-ydpi="67.744843" />
      <path
         d="m 117.53619,116.59301 0.33931,-0.007 c -0.0236,-0.15296 -0.0351,-0.30371 -0.0345,-0.45859 h -0.33537 c -0.003,0.15535 0.008,0.31178 0.0306,0.46587 m 0.35655,-1.19482 h -0.38188 l -0.003,0.0716 h 0.37767 z m 0.15222,-0.97056 h -0.37186 l -0.0468,0.21469 h 0.37172 z m 0.59076,1.07788 0.0216,-0.14313 h -0.44509 l -0.0238,0.14313 z m -0.42565,0.99803 h 0.44716 l -0.0341,-0.14313 h -0.43447 z m 0.56804,-2.11166 h -0.44502 l -0.0627,0.28619 h 0.44509 z m 0.0895,2.15576 0.1446,-0.67242 0.16872,0.78454 0.16879,-0.78454 0.16859,0.78454 0.16878,-0.78454 0.16866,0.78454 0.16872,-0.78454 0.16872,0.78447 0.16872,-0.78447 0.16866,0.78454 0.16879,-0.78454 0.16872,0.78454 0.16872,-0.78454 0.16865,0.78454 0.16872,-0.78454 0.16879,0.78454 0.16872,-0.78454 0.16873,0.78454 0.16872,-0.78454 0.16879,0.78454 0.16865,-0.78454 0.16865,0.78447 0.16879,-0.78447 0.16866,0.78447 0.16885,-0.78447 0.16866,0.78441 0.16865,-0.78441 0.16879,0.78461 0.16872,-0.78461 0.16866,0.78447 0.16872,-0.78447 0.16858,0.78454 0.16893,-0.78454 0.16872,0.78454 0.16865,-0.78454 0.16872,0.78454 0.16873,-0.78454 0.16878,0.78454 0.16866,-0.78454 0.16872,0.78454 0.16872,-0.78454 0.16872,0.78454 0.16879,-0.78454 0.143,0.66527 v -0.67502 h -7.3888 c -0.004,0.23193 10e-4,0.46213 0.015,0.68217 m 7.32612,0.54097 h -7.00057 v 0.14313 h 7.00057 z m 0.0477,-1.74414 h -7.36454 c -0.006,0.0779 -0.0109,0.15609 -0.0146,0.23481 h 7.37917 z m 0,-1.15686 h -7.18059 c -0.0484,0.17807 -0.0885,0.37546 -0.12,0.58441 h 7.30059 z m 0.46233,3.04968 c 0.0303,0.005 0.0744,0.01 0.13023,0.0153 0.11199,0.0101 0.27129,0.017 0.46133,0.0132 0.37987,-0.007 0.8833,-0.0564 1.37763,-0.15375 0.49414,-0.0955 0.98079,-0.24042 1.3183,-0.41195 0.0847,-0.0417 0.15897,-0.0867 0.22311,-0.1285 0.0311,-0.0225 0.0602,-0.0435 0.0871,-0.063 0.0252,-0.0216 0.0485,-0.0414 0.0692,-0.0593 0.0387,-0.0394 0.0692,-0.0699 0.0859,-0.0942 0.018,-0.0233 0.0277,-0.0356 0.0277,-0.0356 0,0 -0.0101,0.0119 -0.0289,0.0345 -0.0176,0.0239 -0.0492,0.0532 -0.0887,0.0908 -0.0214,0.017 -0.0451,0.0359 -0.0708,0.0563 -0.0273,0.0184 -0.0568,0.0383 -0.0885,0.0595 -0.0654,0.0391 -0.14032,0.0811 -0.22578,0.1194 -0.34039,0.15803 -0.82798,0.28453 -1.32104,0.3615 -0.49307,0.0792 -0.99322,0.10992 -1.36534,0.10351 -0.18616,-0.003 -0.34019,-0.0152 -0.44636,-0.0286 -0.053,-0.007 -0.0944,-0.0132 -0.12208,-0.0188 -0.0279,-0.005 -0.0428,-0.008 -0.0428,-0.008 l -0.0263,0.14059 c 0,0 0.0161,0.003 0.0462,0.007 m 3.7428,-1.60749 c -0.008,-0.0115 -0.0164,-0.0237 -0.0252,-0.0365 -0.0102,-0.0118 -0.0208,-0.0242 -0.0319,-0.0371 -0.0224,-0.0259 -0.0468,-0.0541 -0.0727,-0.0841 -0.0132,-0.0152 -0.0268,-0.0308 -0.0408,-0.0468 -0.0147,-0.0152 -0.0308,-0.0295 -0.0468,-0.0449 -0.0325,-0.0307 -0.0668,-0.0629 -0.10243,-0.0966 -0.0353,-0.0345 -0.0776,-0.063 -0.11888,-0.0967 -0.042,-0.032 -0.0841,-0.0686 -0.13217,-0.0978 -0.0474,-0.0311 -0.0959,-0.0632 -0.14573,-0.0957 -0.0506,-0.0309 -0.10431,-0.059 -0.1583,-0.0895 -0.0536,-0.0316 -0.10999,-0.059 -0.16779,-0.0856 -0.0579,-0.0262 -0.1154,-0.0572 -0.1758,-0.0804 -0.0603,-0.0243 -0.12108,-0.0488 -0.18215,-0.0735 -0.0614,-0.0238 -0.12402,-0.0436 -0.1865,-0.0656 -0.0624,-0.0225 -0.12535,-0.0424 -0.1885,-0.06 -0.0631,-0.0181 -0.12596,-0.0378 -0.1887,-0.0544 -0.12582,-0.0307 -0.25011,-0.0642 -0.37125,-0.0875 -0.12102,-0.0269 -0.23849,-0.048 -0.35021,-0.0667 -0.11172,-0.0209 -0.2177,-0.0333 -0.31566,-0.0481 -0.098,-0.0151 -0.18783,-0.0226 -0.26768,-0.0326 -0.0799,-0.01 -0.14948,-0.0158 -0.20688,-0.0208 -0.11473,-0.0102 -0.18048,-0.016 -0.18048,-0.016 v 0.64401 c 0,0 0.0623,-0.004 0.17133,-0.0118 0.0545,-0.004 0.12081,-0.009 0.19678,-0.0113 0.0759,-0.003 0.16204,-0.009 0.25539,-0.009 0.0935,-7.6e-4 0.19538,-0.005 0.3023,-0.002 0.10718,7.6e-4 0.22044,0.003 0.33684,0.0104 0.11733,0.004 0.23674,0.0167 0.35943,0.0267 0.0611,0.006 0.12188,0.0152 0.18362,0.0228 0.0619,0.007 0.12335,0.0162 0.18442,0.028 0.0609,0.0113 0.12302,0.0204 0.18362,0.0336 0.0603,0.0139 0.12048,0.0278 0.18022,0.0416 0.0603,0.0127 0.1172,0.0329 0.17527,0.0488 0.0581,0.0162 0.11513,0.0336 0.16919,0.0549 0.0545,0.0205 0.10945,0.0389 0.1615,0.0603 0.0514,0.0231 0.10157,0.0458 0.15041,0.068 0.0502,0.0206 0.0941,0.0484 0.13879,0.0724 0.0436,0.0255 0.0888,0.0465 0.12716,0.0736 0.039,0.0266 0.0762,0.0522 0.11172,0.0764 0.0177,0.0123 0.0358,0.0238 0.0521,0.036 0.0154,0.013 0.0305,0.0257 0.045,0.038 0.0294,0.0248 0.057,0.0481 0.0825,0.0694 0.0128,0.0108 0.0252,0.0212 0.037,0.0312 0.0107,0.0113 0.0208,0.0219 0.0305,0.0321 0.0775,0.0813 0.12168,0.12776 0.12168,0.12776 0,0 -0.0364,-0.0528 -0.10017,-0.1452 m -12.68631,-1.9005 c 0.0116,-0.0259 0.0372,-0.0426 0.0654,-0.0426 h 0.68578 c 0.0241,0 0.0467,0.0123 0.0599,0.0327 0.0132,0.0202 0.0152,0.0459 0.005,0.0681 -0.0267,0.0601 -0.0519,0.12542 -0.0755,0.19451 0.11046,0.1007 0.32388,0.0996 0.46113,0.0329 0.0323,-0.10284 0.0674,-0.19906 0.10584,-0.28559 0.0116,-0.0259 0.0372,-0.0426 0.0654,-0.0426 h 7.17938 c 0.0396,0 0.0716,0.0321 0.0716,0.0717 v 0.0208 c 2.34232,7.5e-4 3.9005,0.51391 4.63165,1.52503 l 0.0135,0.0189 v 1.04794 l -0.0135,0.0188 c -0.91992,1.27226 -3.02516,1.54054 -4.63165,1.54128 v 0.0728 c 0,0.0395 -0.032,0.0715 -0.0716,0.0715 h -7.17938 c -0.0238,0 -0.0461,-0.0119 -0.0593,-0.0317 -0.0213,-0.0314 -0.0413,-0.0675 -0.0607,-0.1055 h -10e-4 v -0.003 c -0.0318,-0.0626 -0.0609,-0.13318 -0.0878,-0.21122 -0.13919,-0.065 -0.3444,-0.0478 -0.44824,0.0581 0.0291,0.0692 0.0605,0.13111 0.0946,0.18196 0.0148,0.0219 0.0163,0.0502 0.004,0.0736 -0.0124,0.0233 -0.0368,0.0379 -0.0631,0.0379 h -0.68578 c -0.0238,0 -0.0461,-0.0119 -0.0595,-0.0317 -0.23274,-0.34613 -0.35482,-1.09726 -0.36631,-1.90605 0.01,-0.006 0.016,-0.01 0.016,-0.01 l -0.0165,-0.0263 c -0.009,-0.87481 0.11099,-1.81096 0.36083,-2.37252"
         fill="#0a0b09"
         id="path16475"
         style="fill:#00b4cc;fill-opacity:1;stroke-width:0.0668203"
         inkscape:export-filename="G:\Files\Projects\mlwbd\movie-bullet-gui\favicon2.png"
         inkscape:export-xdpi="67.744843"
         inkscape:export-ydpi="67.744843" />
      <path
         d="m 130.39456,115.61516 c -0.0118,-0.01 -0.0241,-0.0204 -0.037,-0.0311 -0.0255,-0.0215 -0.0531,-0.0447 -0.0825,-0.0694 -0.0146,-0.0123 -0.0297,-0.025 -0.0451,-0.0381 -0.0163,-0.0121 -0.0343,-0.0236 -0.0519,-0.0359 -0.0357,-0.0242 -0.0729,-0.0498 -0.11186,-0.0764 -0.0383,-0.0271 -0.0836,-0.0481 -0.12716,-0.0736 -0.0446,-0.0241 -0.0886,-0.0519 -0.13885,-0.0724 -0.0488,-0.0222 -0.099,-0.0449 -0.15035,-0.068 -0.0521,-0.0214 -0.10691,-0.0397 -0.16157,-0.0603 -0.054,-0.0214 -0.11105,-0.0386 -0.16912,-0.0549 -0.0581,-0.0158 -0.115,-0.0362 -0.17527,-0.0489 -0.0597,-0.0138 -0.11988,-0.0277 -0.18028,-0.0416 -0.0605,-0.0132 -0.12262,-0.0223 -0.18363,-0.0335 -0.061,-0.0118 -0.12254,-0.021 -0.18442,-0.028 -0.0617,-0.008 -0.12255,-0.0166 -0.18355,-0.0228 -0.12275,-0.0101 -0.2421,-0.0231 -0.35943,-0.0269 -0.11647,-0.007 -0.2296,-0.009 -0.33691,-0.0103 -0.10685,-0.003 -0.20881,0.001 -0.30223,0.002 -0.0934,2.5e-4 -0.17954,0.007 -0.25539,0.009 -0.0758,0.003 -0.14226,0.007 -0.19685,0.0112 -0.10905,0.007 -0.17119,0.0118 -0.17119,0.0118 v -0.64395 c 0,0 0.0656,0.006 0.18048,0.0159 0.0573,0.005 0.12696,0.011 0.20674,0.0208 0.08,0.01 0.16979,0.0176 0.26768,0.0326 0.098,0.0148 0.20394,0.0271 0.31573,0.0481 0.11179,0.0186 0.22926,0.0399 0.35021,0.0667 0.12114,0.0233 0.24536,0.0568 0.37118,0.0875 0.0628,0.0166 0.12576,0.0362 0.18877,0.0543 0.0632,0.0177 0.12609,0.0375 0.18843,0.06 0.0625,0.022 0.12516,0.0418 0.1865,0.0655 0.0611,0.0247 0.12188,0.0491 0.18222,0.0736 0.0604,0.0231 0.11794,0.0542 0.1758,0.0804 0.0577,0.0265 0.1142,0.0539 0.16779,0.0854 0.054,0.0307 0.10765,0.0587 0.15843,0.0895 0.0497,0.0327 0.0982,0.0648 0.14553,0.0958 0.0481,0.0293 0.0901,0.0659 0.13224,0.0979 0.0412,0.0337 0.0835,0.0622 0.11888,0.0967 0.0356,0.0336 0.0699,0.0659 0.10243,0.0966 0.016,0.0154 0.0321,0.0297 0.0468,0.045 0.014,0.016 0.0275,0.0316 0.0407,0.0468 0.026,0.03 0.0503,0.0581 0.0728,0.0841 0.0112,0.013 0.0218,0.0253 0.0319,0.0371 0.009,0.0128 0.0172,0.0249 0.0252,0.0365 0.0637,0.0925 0.1001,0.1452 0.1001,0.1452 0,0 -0.0441,-0.0464 -0.12161,-0.12777 -0.01,-0.0101 -0.0198,-0.0209 -0.0305,-0.0321"
         fill="#fffffe"
         id="path16477"
         style="stroke-width:0.0668203"
         inkscape:export-filename="G:\Files\Projects\mlwbd\movie-bullet-gui\favicon2.png"
         inkscape:export-xdpi="67.744843"
         inkscape:export-ydpi="67.744843" />
      <path
         d="m 119.61062,117.08868 h 6.58328 v 0.14313 h -7.0007 v -0.14313 h 0.41742"
         fill="#fffffe"
         id="path16479"
         style="stroke-width:0.0668203"
         inkscape:export-filename="G:\Files\Projects\mlwbd\movie-bullet-gui\favicon2.png"
         inkscape:export-xdpi="67.744843"
         inkscape:export-ydpi="67.744843" />
      <path
         d="m 126.72673,117.09764 c 0.0277,0.006 0.0691,0.0118 0.12208,0.0187 0.10617,0.0134 0.26019,0.0257 0.44636,0.0287 0.37212,0.006 0.87227,-0.0244 1.36534,-0.10357 0.49306,-0.0769 0.98065,-0.20353 1.32103,-0.3615 0.0855,-0.0383 0.16044,-0.0802 0.22579,-0.1194 0.0317,-0.0212 0.0611,-0.0411 0.0885,-0.0595 0.0257,-0.0204 0.0494,-0.0393 0.0708,-0.0563 0.0396,-0.0374 0.0712,-0.0668 0.0887,-0.0907 0.0188,-0.0226 0.0289,-0.0345 0.0289,-0.0345 0,0 -0.01,0.0123 -0.0277,0.0357 -0.0166,0.0243 -0.0471,0.0549 -0.0859,0.0942 -0.0208,0.0179 -0.044,0.0376 -0.0692,0.0593 -0.0269,0.0195 -0.056,0.0406 -0.0871,0.063 -0.0641,0.0418 -0.13845,0.0868 -0.22324,0.12857 -0.33738,0.17146 -0.82403,0.31639 -1.31817,0.41188 -0.49434,0.0973 -0.99776,0.1466 -1.37763,0.15375 -0.19004,0.004 -0.34934,-0.003 -0.46133,-0.0132 -0.0559,-0.005 -0.1,-0.0104 -0.13023,-0.0153 -0.0301,-0.004 -0.0462,-0.007 -0.0462,-0.007 l 0.0263,-0.14052 c 0,0 0.0149,0.003 0.0428,0.008"
         fill="#fffffe"
         id="path16481"
         style="stroke-width:0.0668203"
         inkscape:export-filename="G:\Files\Projects\mlwbd\movie-bullet-gui\favicon2.png"
         inkscape:export-xdpi="67.744843"
         inkscape:export-ydpi="67.744843" />
      <path
         d="m 118.27041,114.67807 0.0627,-0.28619 h 0.44502 l -0.0625,0.28619 h -0.44516"
         fill="#fffffe"
         id="path16483"
         style="stroke-width:0.0668203"
         inkscape:export-filename="G:\Files\Projects\mlwbd\movie-bullet-gui\favicon2.png"
         inkscape:export-xdpi="67.744843"
         inkscape:export-ydpi="67.744843" />
      <path
         d="m 117.62619,114.64232 0.0469,-0.21469 h 0.37192 l -0.0471,0.21469 h -0.37173"
         fill="#fffffe"
         id="path16485"
         style="stroke-width:0.0668203"
         inkscape:export-filename="G:\Files\Projects\mlwbd\movie-bullet-gui\favicon2.png"
         inkscape:export-xdpi="67.744843"
         inkscape:export-ydpi="67.744843" />
      <path
         d="m 118.18849,115.50551 0.0237,-0.1432 h 0.44516 l -0.0216,0.1432 h -0.44723"
         fill="#fffffe"
         id="path16487"
         style="stroke-width:0.0668203"
         inkscape:export-filename="G:\Files\Projects\mlwbd\movie-bullet-gui\favicon2.png"
         inkscape:export-xdpi="67.744843"
         inkscape:export-ydpi="67.744843" />
      <path
         d="m 118.18855,116.36041 h 0.43447 l 0.0344,0.14313 h -0.4473 l -0.0215,-0.14313"
         fill="#fffffe"
         id="path16489"
         style="stroke-width:0.0668203"
         inkscape:export-filename="G:\Files\Projects\mlwbd\movie-bullet-gui\favicon2.png"
         inkscape:export-xdpi="67.744843"
         inkscape:export-ydpi="67.744843" />
      <path
         d="m 117.50765,115.46976 0.003,-0.0716 h 0.38188 l -0.008,0.0716 h -0.37754"
         fill="#fffffe"
         id="path16491"
         style="stroke-width:0.0668203"
         inkscape:export-filename="G:\Files\Projects\mlwbd\movie-bullet-gui\favicon2.png"
         inkscape:export-xdpi="67.744843"
         inkscape:export-ydpi="67.744843" />
      <path
         d="m 117.53619,116.59301 c -0.0231,-0.15409 -0.0333,-0.31051 -0.0306,-0.46587 h 0.33537 c -5.3e-4,0.15489 0.011,0.30563 0.0345,0.45859 l -0.33931,0.007"
         fill="#fffffe"
         id="path16493"
         style="stroke-width:0.0668203"
         inkscape:export-filename="G:\Files\Projects\mlwbd\movie-bullet-gui\favicon2.png"
         inkscape:export-xdpi="67.744843"
         inkscape:export-ydpi="67.744843" />
      <path
         d="m 116.99621,113.38423 c -0.12301,-0.0783 -0.26294,-0.16592 -0.42277,-0.24376 -0.0789,-0.0422 -0.16451,-0.0762 -0.25225,-0.115 -0.0895,-0.0324 -0.18155,-0.0697 -0.27971,-0.0956 -0.19465,-0.0567 -0.40586,-0.0998 -0.62945,-0.11393 -0.22304,-0.0159 -0.45685,-0.01 -0.69466,0.0141 -0.23501,0.0283 -0.48552,0.0696 -0.73295,0.10224 -0.99068,0.13343 -1.9829,0.23748 -2.72881,0.30129 -0.37286,0.0315 -0.68424,0.0515 -0.90254,0.0585 -0.10899,0.005 -0.19512,0.003 -0.25332,0.002 -0.0585,-0.004 -0.0895,-0.006 -0.0895,-0.006 0,0 0.0312,5.1e-4 0.0895,0.002 0.0582,-0.002 0.1438,-0.004 0.25225,-0.0152 0.21703,-0.0185 0.52607,-0.0552 0.89633,-0.10665 0.73943,-0.10363 1.72429,-0.26086 2.70127,-0.44649 0.24457,-0.0456 0.48365,-0.0988 0.73396,-0.14273 0.24857,-0.0387 0.49855,-0.0591 0.74217,-0.055 0.24383,0.003 0.48044,0.0371 0.69948,0.0883 0.11052,0.0232 0.21442,0.0583 0.31586,0.0894 0.099,0.037 0.19625,0.0702 0.28479,0.11153 0.18075,0.0764 0.33697,0.16277 0.47442,0.24022 0.13538,0.0799 0.25125,0.15241 0.34546,0.21683 0.0966,0.0631 0.16311,0.11279 0.21156,0.1466 0.0476,0.0339 0.073,0.0519 0.073,0.0519 l -0.0175,0.0233 -0.24036,0.32001 c 0,0 -0.0243,-0.0195 -0.07,-0.0557 -0.0253,-0.0197 -0.058,-0.0462 -0.0956,-0.0758 -0.0304,-0.0239 -0.064,-0.0497 -0.10104,-0.0767 -0.0826,-0.0634 -0.18756,-0.13724 -0.30951,-0.2183"
         fill="#fffffe"
         id="path16495"
         style="stroke-width:0.0668203"
         inkscape:export-filename="G:\Files\Projects\mlwbd\movie-bullet-gui\favicon2.png"
         inkscape:export-xdpi="67.744843"
         inkscape:export-ydpi="67.744843" />
      <path
         d="m 116.81874,116.41132 c -0.0446,0.0122 -0.0911,0.0251 -0.13979,0.0384 -0.0968,0.0302 -0.20334,0.045 -0.31599,0.0692 -0.22626,0.035 -0.48138,0.0601 -0.75761,0.0678 -0.27617,0.006 -0.57359,7.5e-4 -0.88624,-0.0149 -0.31239,-0.0169 -0.64034,-0.0413 -0.97845,-0.0701 -0.67629,-0.0583 -1.39448,-0.12943 -2.114,-0.18122 -0.35956,-0.0267 -0.71945,-0.0478 -1.0738,-0.0632 -0.17734,-0.007 -0.35328,-0.0148 -0.52715,-0.0176 -0.1738,-0.005 -0.34559,-0.008 -0.51458,-0.008 -0.33791,-0.003 -0.6648,0.003 -0.97451,0.0138 -0.15502,0.004 -0.30537,0.0128 -0.45117,0.0203 -0.1458,0.007 -0.28606,0.0164 -0.42103,0.0272 -0.27016,0.0177 -0.51666,0.0456 -0.73576,0.0665 -0.21837,0.0271 -0.40881,0.0507 -0.5655,0.0701 -0.31272,0.047 -0.49127,0.0738 -0.49127,0.0738 0,0 0.17775,-0.0324 0.48893,-0.0889 0.15616,-0.0244 0.34593,-0.0538 0.56376,-0.0877 0.21837,-0.0278 0.4646,-0.0633 0.73476,-0.0895 0.13497,-0.015 0.2755,-0.0293 0.42143,-0.0404 0.14574,-0.012 0.29635,-0.0259 0.45171,-0.0344 0.31031,-0.0205 0.63827,-0.0363 0.97758,-0.044 0.16966,-0.005 0.34219,-0.008 0.51699,-0.008 0.1746,-0.003 0.35141,2.5e-4 0.52955,0.001 0.35655,0.005 0.71872,0.0144 1.08022,0.0301 0.7236,0.0297 1.44552,0.0786 2.12081,0.11586 0.33751,0.0183 0.66326,0.0324 0.9713,0.0395 0.30798,0.006 0.59784,0.002 0.86332,-0.0122 0.26521,-0.0155 0.50429,-0.047 0.71224,-0.0854 0.1015,-0.0259 0.19959,-0.042 0.28405,-0.0718 0.0429,-0.0131 0.0839,-0.0256 0.12322,-0.0379 0.0378,-0.0151 0.0738,-0.0294 0.10791,-0.0431 0.0658,-0.0237 0.11627,-0.0507 0.16124,-0.0739 l 0.0102,-0.005 c 0.0239,-0.0119 0.046,-0.0231 0.0663,-0.0331 0.0217,-0.0142 0.0416,-0.0271 0.0594,-0.0386 0.0709,-0.0462 0.10885,-0.0708 0.10885,-0.0708 l 0.17374,0.2767 0.0166,0.0263 c 0,0 -0.006,0.004 -0.016,0.01 -0.0174,0.0104 -0.0483,0.0291 -0.0949,0.0574 -0.0182,0.011 -0.0383,0.0233 -0.0607,0.0367 -0.0264,0.0129 -0.0552,0.0269 -0.0863,0.042 -0.0314,0.015 -0.0651,0.0309 -0.10076,0.048 -0.0284,0.014 -0.0579,0.0238 -0.0883,0.0347 -0.008,0.003 -0.0162,0.006 -0.0247,0.009 -0.0397,0.0144 -0.0817,0.0295 -0.12549,0.0455"
         fill="#fffffe"
         id="path16497"
         style="stroke-width:0.0668203"
         inkscape:export-filename="G:\Files\Projects\mlwbd\movie-bullet-gui\favicon2.png"
         inkscape:export-xdpi="67.744843"
         inkscape:export-ydpi="67.744843" />
      <path
         d="m 117.83862,118.44213 c -0.008,0.0193 -0.0162,0.0404 -0.0253,0.0631 -0.0192,0.0443 -0.0431,0.0822 -0.0701,0.1305 -0.0586,0.0885 -0.13445,0.18991 -0.23441,0.2876 -0.0998,0.0974 -0.2173,0.19999 -0.35575,0.29347 -0.13798,0.0937 -0.29167,0.18757 -0.46193,0.26876 -0.17012,0.0811 -0.35248,0.1595 -0.54706,0.22124 -0.19418,0.0625 -0.39711,0.1184 -0.60673,0.15662 -0.1041,0.0228 -0.21088,0.0348 -0.31686,0.052 -0.10711,0.0101 -0.21382,0.0261 -0.32167,0.0307 l -0.16111,0.01 -0.16077,0.003 c -0.10718,0.004 -0.21362,-0.002 -0.31926,-0.005 -0.10551,-0.004 -0.20975,-0.0146 -0.31272,-0.0214 -0.10264,-0.0127 -0.20414,-0.0235 -0.30337,-0.0378 -0.0988,-0.0172 -0.19625,-0.0312 -0.29073,-0.0503 -0.0941,-0.0206 -0.1865,-0.0389 -0.2755,-0.0603 -0.0886,-0.0233 -0.17474,-0.0458 -0.25813,-0.0677 -0.0823,-0.0254 -0.16171,-0.05 -0.23795,-0.0735 -0.0767,-0.0222 -0.14787,-0.0508 -0.21636,-0.0748 -0.068,-0.0255 -0.13364,-0.0462 -0.19331,-0.0718 -0.11928,-0.0501 -0.22472,-0.0903 -0.30878,-0.1295 -0.16832,-0.0781 -0.26441,-0.12275 -0.26441,-0.12275 0,0 0.0984,0.0395 0.27029,0.10852 0.0857,0.0348 0.19318,0.0691 0.31426,0.11273 0.0604,0.0224 0.12689,0.0395 0.19578,0.0612 0.0694,0.0202 0.14119,0.0448 0.2183,0.0627 0.0768,0.0193 0.15663,0.0395 0.23922,0.0603 0.0835,0.0173 0.16979,0.0352 0.25846,0.0534 0.089,0.0165 0.18102,0.0296 0.27457,0.045 0.0937,0.0139 0.19043,0.0225 0.28806,0.0344 0.0978,0.009 0.19779,0.0141 0.29855,0.0212 0.1013,0.001 0.20334,0.007 0.30644,0.005 0.10297,-0.003 0.20661,-0.003 0.31038,-0.0118 l 0.15582,-0.011 0.15536,-0.0177 c 0.10371,-0.01 0.20601,-0.0309 0.30838,-0.046 0.10116,-0.0221 0.203,-0.0389 0.30156,-0.0661 0.19872,-0.047 0.38929,-0.11066 0.56978,-0.17948 0.18101,-0.068 0.34833,-0.15102 0.50242,-0.23461 0.15455,-0.0839 0.29067,-0.17781 0.41074,-0.26875 0.12075,-0.0911 0.2183,-0.18683 0.29869,-0.27356 0.0808,-0.0876 0.13471,-0.1712 0.17554,-0.23902 0.0105,-0.0224 0.022,-0.0443 0.0309,-0.0634 0.005,-0.01 0.009,-0.0187 0.0113,-0.0263 0.004,-0.0108 0.007,-0.0208 0.0108,-0.03 0.003,-0.01 0.007,-0.0146 0.009,-0.0291 0.0104,-0.0486 0.0158,-0.0744 0.0158,-0.0744 l 0.34827,0.0818 c 0,0 -0.006,0.024 -0.0181,0.0677 l -0.002,0.006 c -0.002,0.01 -0.0101,0.0304 -0.0172,0.0492"
         fill="#fffffe"
         id="path16499"
         style="stroke-width:0.0668203"
         inkscape:export-filename="G:\Files\Projects\mlwbd\movie-bullet-gui\favicon2.png"
         inkscape:export-xdpi="67.744843"
         inkscape:export-ydpi="67.744843" />
    </g>
    <path
       d="m 77.623774,88.514941 59.600256,-10.509393 -0.20981,-1.195752 -1.50201,-8.519032 -59.606195,10.51044 0.23493,1.33057 1.267085,7.188462 0.210686,1.195752 8.72e-4,-1.75e-4 v 32.892937 c 0,2.18605 1.78857,3.97549 3.97549,3.97549 h 52.574872 c 2.18605,0 3.97549,-1.78857 3.97549,-3.97549 V 88.515116 H 77.623774 Z m 56.914176,-18.680129 1.05989,6.011546 -6.99208,-4.965787 z m -8.51362,1.500968 8.36102,5.937422 -7.18847,1.267085 -8.36101,-5.937422 z m -9.96018,1.756478 8.36102,5.937422 -7.18759,1.267086 -8.36102,-5.937423 z m -9.95861,1.755606 8.36102,5.937423 -7.18846,1.267085 -8.361019,-5.937423 z m -9.960175,1.756478 8.361015,5.937423 -7.18846,1.267085 -8.361017,-5.937249 z m -9.95948,1.756652 8.361017,5.937423 -7.188462,1.267085 -8.361017,-5.937423 z m -8.726928,2.694976 7.127768,4.997879 -6.08288,1.072444 z m 57.785353,8.810122 -7.20276,7.299212 h -7.29921 l 7.20276,-7.299212 z m -10.11383,0 -7.20276,7.299212 h -7.29922 l 7.20277,-7.299212 z m -10.11383,0 -7.20277,7.299212 h -7.29834 l 7.20277,-7.299212 z m -10.11296,0 -7.202766,7.299212 h -7.299212 l 7.202763,-7.299212 z m -26.232064,6.281183 v -6.281183 h 6.198165 z m 8.819889,-6.281183 h 7.299212 l -7.202764,7.299037 H 80.288751 Z M 134.09234,121.85245 H 81.46026 v -20.16523 h 52.63208 z m 2.99949,-24.687321 h -6.23566 l 6.23566,-6.244558 z"
       id="path1179"
       style="fill:#00b4cc;fill-opacity:1;stroke-width:0.174409"
       inkscape:export-filename="G:\Files\Projects\mlwbd\movie-bullet-gui\favicon2.png"
       inkscape:export-xdpi="67.744843"
       inkscape:export-ydpi="67.744843" />
    <rect
       x="83.307953"
       y="103.53474"
       width="7.4134502"
       height="16.470013"
       id="rect1187"
       style="fill:#00b4cc;fill-opacity:1;stroke-width:0.174409"
       inkscape:export-filename="G:\Files\Projects\mlwbd\movie-bullet-gui\favicon2.png"
       inkscape:export-xdpi="67.744843"
       inkscape:export-ydpi="67.744843" />
    <text
       xml:space="preserve"
       style="font-style:normal;font-weight:normal;font-size:10.5833px;line-height:1.25;font-family:sans-serif;fill:#000000;fill-opacity:1;stroke:none;stroke-width:0.264583"
       x="77.306709"
       y="136.10977"
       id="text9626"
       inkscape:export-filename="F:\codes\mlwbd\standalone-gui\web\logo2.png"
       inkscape:export-xdpi="67.744843"
       inkscape:export-ydpi="67.744843"><tspan
         sodipodi:role="line"
         id="tspan9624"
         style="font-style:normal;font-variant:normal;font-weight:normal;font-stretch:normal;font-size:10.5833px;font-family:Forte;-inkscape-font-specification:'Forte, Normal';font-variant-ligatures:normal;font-variant-caps:normal;font-variant-numeric:normal;font-variant-east-asian:normal;stroke-width:0.264583"
         x="77.306709"
         y="136.10977">MovieBullet</tspan></text>
  </g>
</svg>
