<?xml version="1.0" encoding="UTF-8" standalone="no"?>
<!-- Created with Inkscape (http://www.inkscape.org/) -->

<svg
   width="793.70081"
   height="1122.5197"
   viewBox="0 0 210 297"
   version="1.1"
   id="svg5"
   inkscape:version="1.1 (c68e22c387, 2021-05-23)"
   sodipodi:docname="logo.svg"
   xmlns:inkscape="http://www.inkscape.org/namespaces/inkscape"
   xmlns:sodipodi="http://sodipodi.sourceforge.net/DTD/sodipodi-0.dtd"
   xmlns="http://www.w3.org/2000/svg"
   xmlns:svg="http://www.w3.org/2000/svg">
  <sodipodi:namedview
     id="namedview7"
     pagecolor="#505050"
     bordercolor="#ffffff"
     borderopacity="1"
     inkscape:pageshadow="0"
     inkscape:pageopacity="0"
     inkscape:pagecheckerboard="1"
     inkscape:document-units="px"
     showgrid="false"
     units="px"
     inkscape:zoom="0.70710678"
     inkscape:cx="295.57064"
     inkscape:cy="460.32652"
     inkscape:window-width="1366"
     inkscape:window-height="705"
     inkscape:window-x="-8"
     inkscape:window-y="-8"
     inkscape:window-maximized="1"
     inkscape:current-layer="layer1" />
  <defs
     id="defs2" />
  <g
     inkscape:label="Layer 1"
     inkscape:groupmode="layer"
     id="layer1">
    <g
       id="g1253"
       transform="matrix(0.1744095,0,0,0.1744095,73.808957,65.717701)"
       style="fill:#00b4cc;fill-opacity:1"
       inkscape:export-filename="F:\codes\mlwbd\standalone-gui\web\favicon.png"
       inkscape:export-xdpi="67.744843"
       inkscape:export-ydpi="67.744843">
      <g
         id="g1193"
         style="fill:#00b4cc;fill-opacity:1">
        <g
           id="g1191"
           style="fill:#00b4cc;fill-opacity:1">
          <path
             d="M 9.849,130.711 351.575,70.454 350.372,63.598 341.76,14.753 0,75.016 l 1.347,7.629 7.265,41.216 1.208,6.856 0.005,-0.001 v 188.596 c 0,12.534 10.255,22.794 22.794,22.794 h 301.445 c 12.534,0 22.794,-10.255 22.794,-22.794 v -188.6 H 9.849 Z m 326.325,-107.105 6.077,34.468 -40.09,-28.472 z m -48.814,8.606 47.939,34.043 -41.216,7.265 -47.939,-34.043 z m -57.108,10.071 47.939,34.043 -41.211,7.265 -47.939,-34.043 z m -57.099,10.066 47.939,34.043 -41.216,7.265 -47.939,-34.043 z M 116.045,62.42 163.984,96.463 122.768,103.728 74.829,69.686 Z M 58.941,72.492 106.88,106.535 65.664,113.8 17.725,79.757 Z M 8.904,87.944 49.772,116.6 14.895,122.749 Z m 331.32,50.514 -41.298,41.851 h -41.851 l 41.298,-41.851 z m -57.989,0 -41.298,41.851 h -41.851 l 41.298,-41.851 z m -57.989,0 -41.298,41.851 H 141.102 L 182.4,138.458 Z m -57.984,0 -41.298,41.851 H 83.113 l 41.298,-41.851 z M 15.857,174.472 v -36.014 h 35.538 z m 50.57,-36.014 h 41.851 L 66.98,180.308 H 25.129 Z M 333.619,321.856 H 31.846 v -115.62 h 301.773 z m 17.198,-141.548 h -35.753 l 35.753,-35.804 z"
             id="path1179"
             style="fill:#00b4cc;fill-opacity:1" />
          <rect
             x="221.834"
             y="216.82899"
             width="101.192"
             height="30.346001"
             id="rect1181"
             style="fill:#00b4cc;fill-opacity:1" />
          <rect
             x="221.834"
             y="258.26599"
             width="101.192"
             height="52.997002"
             id="rect1183"
             style="fill:#00b4cc;fill-opacity:1" />
          <rect
             x="96.036003"
             y="216.82899"
             width="114.708"
             height="30.346001"
             id="rect1185"
             style="fill:#00b4cc;fill-opacity:1" />
          <rect
             x="42.439999"
             y="216.82899"
             width="42.506001"
             height="94.432999"
             id="rect1187"
             style="fill:#00b4cc;fill-opacity:1" />
          <rect
             x="96.036003"
             y="258.26599"
             width="114.708"
             height="52.997002"
             id="rect1189"
             style="fill:#00b4cc;fill-opacity:1" />
        </g>
      </g>
      <g
         id="g1195"
         style="fill:#00b4cc;fill-opacity:1" />
      <g
         id="g1197"
         style="fill:#00b4cc;fill-opacity:1" />
      <g
         id="g1199"
         style="fill:#00b4cc;fill-opacity:1" />
      <g
         id="g1201"
         style="fill:#00b4cc;fill-opacity:1" />
      <g
         id="g1203"
         style="fill:#00b4cc;fill-opacity:1" />
      <g
         id="g1205"
         style="fill:#00b4cc;fill-opacity:1" />
      <g
         id="g1207"
         style="fill:#00b4cc;fill-opacity:1" />
      <g
         id="g1209"
         style="fill:#00b4cc;fill-opacity:1" />
      <g
         id="g1211"
         style="fill:#00b4cc;fill-opacity:1" />
      <g
         id="g1213"
         style="fill:#00b4cc;fill-opacity:1" />
      <g
         id="g1215"
         style="fill:#00b4cc;fill-opacity:1" />
      <g
         id="g1217"
         style="fill:#00b4cc;fill-opacity:1" />
      <g
         id="g1219"
         style="fill:#00b4cc;fill-opacity:1" />
      <g
         id="g1221"
         style="fill:#00b4cc;fill-opacity:1" />
      <g
         id="g1223"
         style="fill:#00b4cc;fill-opacity:1" />
    </g>
    <text
       xml:space="preserve"
       style="font-style:normal;font-weight:normal;font-size:10.5833px;line-height:1.25;font-family:sans-serif;fill:#000000;fill-opacity:1;stroke:none;stroke-width:0.264583"
       x="75.209648"
       y="137.69725"
       id="text9626"
       inkscape:export-filename="F:\codes\mlwbd\standalone-gui\web\logo.png"
       inkscape:export-xdpi="67.744843"
       inkscape:export-ydpi="67.744843"><tspan
         sodipodi:role="line"
         id="tspan9624"
         style="font-style:normal;font-variant:normal;font-weight:normal;font-stretch:normal;font-size:10.5833px;font-family:Forte;-inkscape-font-specification:'Forte, Normal';font-variant-ligatures:normal;font-variant-caps:normal;font-variant-numeric:normal;font-variant-east-asian:normal;stroke-width:0.264583"
         x="75.209648"
         y="137.69725">MovieBullet</tspan></text>
  </g>
</svg>
